<?xml version="1.0" encoding="utf-8"?>
<!-- Generator: Adobe Illustrator 16.0.4, SVG Export Plug-In . SVG Version: 6.00 Build 0)  -->
<!DOCTYPE svg PUBLIC "-//W3C//DTD SVG 1.1//EN" "http://www.w3.org/Graphics/SVG/1.1/DTD/svg11.dtd">
<svg version="1.1" id="Layer_1" xmlns="http://www.w3.org/2000/svg" xmlns:xlink="http://www.w3.org/1999/xlink" x="0px" y="0px"
	 width="1024px" height="1024px" viewBox="0 0 1024 1024" enable-background="new 0 0 1024 1024" xml:space="preserve">
<g>
	<g>
		<path d="M277.371,331.394v-49.313h16.438v49.313H277.371z M293.809,282.081v-16.438h32.867v16.438H293.809z M293.809,347.832
			v-16.438h16.438v16.438H293.809z M310.246,331.394v-32.875h16.43v32.875H310.246z"/>
	</g>
	<g>
		<path d="M277.371,714.18v-32.876h16.438v32.876H277.371z M277.371,763.493v-32.875h16.438v32.875H277.371z M293.809,730.618
			V714.18h16.438v16.438H293.809z M310.246,714.18v-32.876h16.43v32.876H310.246z M310.246,763.493v-32.875h16.43v32.875H310.246z"
			/>
	</g>
	<g>
		<path d="M689.348,298.519v-32.876h16.438v32.876H689.348z M689.348,347.832v-32.876h16.438v32.876H689.348z M705.785,314.956
			v-16.438h16.43v16.438H705.785z M722.215,298.519v-32.876h16.438v32.876H722.215z M722.215,347.832v-32.876h16.438v32.876H722.215
			z"/>
	</g>
	<g>
		<path d="M689.348,763.352v-82.189h32.867V697.6h-16.43v49.313h16.43v16.438H689.348z M722.215,746.914V697.6h16.438v49.313
			H722.215z"/>
	</g>
	<g>
		<path fill-rule="evenodd" clip-rule="evenodd" d="M601.164,670.104c-8.494,0-16.092,0-24.191,0c0,16.139,0,32.011,0,48.999
			c7.754,0,15.43,0,23.43,0c0,9.139,0,17.177,0,25.2l0.164-0.142c-7.943,0-15.887,0-24.68,0c0-8.133,0-15.825,0-23.894
			c-8.494-0.566-16.146-1.085-23.807-1.573c-0.348-15.306-0.826-30.626-0.732-45.948c0-1.29,3.713-3.46,5.836-3.633
			c5.994-0.503,12.049-0.173,18.066-0.173c0-8.824,0-16.249,0-24.035c-16.398,0-32.223,0-48.945,0c0,8.117,0,15.824,0,24.696
			c-8.809,0-16.736,0-24.828,0c0,8.652,0,16.092,0,24.665c8.344,0,16.287,0,25.033,0c0,8.84,0,16.563,0,24.224
			c9.164,0,17.484,0,25.812,0c0,16.737,0,33.473,0,50.761c-17.854,0-33.992,0-51.059,0c0-15.998,0-32.121,0-48.983
			c-8.809,0-16.705,0-25.373,0c0,8.022,0,15.761,0,24.35c-8.447,0-16.17,0-24.846,0c0,8.494,0,16.186,0,24.523
			c-8.879,0-16.807,0-25.223,0c0-33.064,0-66.035,0-99.602c8.039,0,15.982,0,24.838,0c0,8.179,0,15.903,0,24.129
			c8.604,0,16.305,0,24.539,0c0-16.123,0-31.963,0-49.03c-7.912,0-15.848,0-24.697,0c0-17.315,0-33.422,0-50.395
			c-8.65,0-16.367,0-24.617,0c0-8.824,0-16.768,0-25.207c16.455,0,32.609,0,49.834,0c0,7.92,0,15.879,0,24.72
			c8.744,0,16.477,0,25.23,0c0,8.565,0,16.265,0,24.939c15.801,0,30.594,0.212,45.35-0.314c1.643-0.055,4.404-4.333,4.482-6.717
			c0.426-13.96,0.213-27.937,0.213-42.51c8.707,0,16.619,0,25.49,0c0,8.227,0,15.95,0,24.162c42.031,0,83.117,0,125.006,0
			c0-24.995,0-49.55,0-74.356c9.084,0,17.367,0,25.641,0c0-0.016-0.205-0.236-0.205-0.236c0,24.633,0,49.274,0,74.78
			c8.541,0,16.281,0,24.586,0c0,8.825,0,16.776,0,25.648c-8.021,0-15.762,0-24.404,0l-51.021,0.574c-8.533,0-16.217,0-24.318,0
			h-26.26c-8.188,0-15.85,0-23.715,0c0,16.595,0,32.604,0,48.822"/>
		<path fill-rule="evenodd" clip-rule="evenodd" d="M323.75,556.002c0.426,8.919,0.85,17.83,1.307,27.543
			c-19.537,0-38.027,0-57.998,0c0-8.762,0-17.838,0-27.732c-19.678,0-37.908,0-57.084,0c0-19.544,0-38.255,0-58.154
			c8.746,0,17.57,0,27.01,0c0-9.989,0-18.837,0-28.645c-8.816,0-17.697,0-27.26,0c0-10.043,0-19.144,0-28.723
			c38.207,0,75.738,0,114.592,0c0,28.377,0,56.471,0,86.373c20.135,0,38.963,0,57.793,0l-0.205-0.188c0,9.194,0,18.388,0,28.558
			c10.373,0,19.207,0,28.699,0c0,10.044,0,19.104,0,28.747c-18.867,0-37.318,0-56.832,0c0-8.935,0-17.735,0-27.496
			c-10.768,0-20.52,0-30.258-0.008c0-9.729,0-19.442,0-29.155c-10.066,0-19.592,0-29.115,0c0-9.493,0-18.986,0-28.708
			c-18.656,0-37.076,0-55.361,0c0,9.548,0,18.326,0,28.424c19.15,0,37.422,0,55.699-0.016c0.574,9.17,1.141,18.341,1.723,27.913
			C305.951,555.177,314.855,555.594,323.75,556.002z"/>
		<path fill-rule="evenodd" clip-rule="evenodd" d="M497.93,267.758c9.248,0,18.482,0,28.918,0c0,8.99,0,17.83,0,27.229
			c10.029,0,18.861,0,28.574,0c0-28.385,0-56.29,0-84.95c9.941,0,19.033,0,28.738,0c0,28.393,0,56.533,0,85.76
			c-9.264,0-18.137,0-27.881,0c0,9.941,0,18.829,0,29.014c-9.996,0-19.127,0-29.061,0c0,9.847,0,18.436,0,27.968
			c-29.195,0-57.588,0-86.578,0c0-28.118,0-56.274,0-85.013c9.627,0,19.104,0,28.58,0l-0.268-0.251c0,18.781,0,37.563,0,56.172
			c20.215,0,38.617,0,57.18,0c0-9.47,0-17.995,0-27.89c-9.596,0-18.664,0-27.969,0c0-10.334,0-19.301,0-28.267L497.93,267.758z"/>
		<path fill-rule="evenodd" clip-rule="evenodd" d="M556.979,556.64c-0.424-8.596-1.141-17.185-1.219-25.789
			c-0.18-20.245-0.055-40.505-0.055-61.835c9.178,0,18.012,0,28.385,0c0-10.083,0-19.144,0-28.66c10.389,0,19.215,0,29.227,0
			c0,9.328,0,18.168,0,27.827c9.713,0,18.27,0,28.164,0c0,9.886,0,18.97,0,29.045c10.131,0,18.979,0,28.512,0
			c0,10.091,0,19.167,0,29.108c-18.625,0-36.832,0-56.369,0c0,9.902,0,19.002,0,30.091c-19.82,0-38.326,0-56.832,0L556.979,556.64z
			 M612.113,525.927c0-9.721,0-18.499,0-27.464c-9.406,0-18.121,0-26.553,0c0,9.595,0,18.373,0,27.464
			C594.59,525.927,602.816,525.927,612.113,525.927z"/>
		<path fill-rule="evenodd" clip-rule="evenodd" d="M469.756,409.808c8.896,0.519,17.783,1.03,27.725,1.604
			c0-9.91,0-18.766,0-28.409c10.074,0,19.15,0,28.85,0c0,47.513,0,94.679,0,143.521c-19.074,0-38.217,0-57.359,0l0.219,0.236
			c0-9.753-0.008-19.49-0.016-29.242l-0.221,0.228c9.486,0,18.971,0,28.314,0c0-20.142,0-38.318,0-56.919
			c-9.83-0.457-19.064-0.881-28.297-1.306l0.188,0.173c0.268-10.036,0.543-20.08,0.818-30.123L469.756,409.808z"/>
		<path fill-rule="evenodd" clip-rule="evenodd" d="M786.062,468.638c-0.125,9.792-0.252,19.584-0.377,29.384l0.252-0.252
			c-28.527,0-57.061,0-86.422,0c0-9.957,0-18.836,0-28.912c-9.9,0-19,0-28.611,0c0-10.036,0-18.86,0-28.361
			c28.572,0,56.697,0,85.885,0c0,8.849,0,17.665,0,28.361c10.516,0,20.01,0,29.494,0L786.062,468.638z"/>
		<path fill-rule="evenodd" clip-rule="evenodd" d="M440.152,526.541c-19.41-0.016-38.83-0.047-58.248-0.063l0.205,0.188
			c0-9.218,0-18.436,0-28.967c9.697,0,18.727,0,28.596,0c0-10.437,0-19.592,0-28.73l-0.258,0.283
			c9.492-0.425,18.992-0.85,29.391-1.306c0-9.124,0-17.948,0-28.251c10.357,0,19.836,0,29.32,0l-0.188-0.173
			c0,19.411-0.008,38.822-0.018,58.225l0.221-0.228c-9.422,0-18.844,0-29.227,0c0,10.838,0,20.04,0,29.242L440.152,526.541z"/>
		<path fill-rule="evenodd" clip-rule="evenodd" d="M469.221,267.766c0-9.281,0-18.553,0-29.179c-10.066,0-19.158,0-28.684,0
			c0-10.225,0-19.08,0-28.628c18.947,0,37.697,0,57.393,0c0,19.395,0,38.593,0,57.8l0.234-0.228
			c-9.736-0.008-19.473-0.016-29.211-0.016L469.221,267.766z"/>
		<path fill-rule="evenodd" clip-rule="evenodd" d="M468.971,526.524c0,9.25,0,18.483,0,28.346c-9.691,0-18.531,0-28.818,0
			c0-9.359,0-18.845,0-28.33l-0.205,0.22c9.746,0,19.49,0,29.242,0L468.971,526.524z"/>
		<path fill-rule="evenodd" clip-rule="evenodd" d="M785.686,498.022c9.258,0,18.521,0,28.59,0c0,8.84,0,17.932,0,28.739
			c-9.156,0-18.625,0-28.078,0.008c0,0.008,0.244,0.259,0.252,0.275c-0.158-9.753-0.332-19.521-0.504-29.274
			C785.938,497.77,785.686,498.022,785.686,498.022z"/>
		<path fill-rule="evenodd" clip-rule="evenodd" d="M642.031,555.72c9.627,0,18.521,0,28.047,0c0,9.312,0,18.168,0,27.826
			c-9.18,0-18.279,0-28.047,0C642.031,574.485,642.031,565.645,642.031,555.72z"/>
		<path fill-rule="evenodd" clip-rule="evenodd" d="M786.283,468.858c0-9.218,0-18.428,0-28.346c9.43,0,18.246,0,27.936,0
			c0,8.77,0,17.807,0,28.118c-9.209,0-18.686,0-28.164,0.008C786.062,468.638,786.283,468.858,786.283,468.858z"/>
		<path fill-rule="evenodd" clip-rule="evenodd" d="M410.705,468.969c-9.17,0-18.355,0-28.014,0c0-10.099,0-18.899,0-28.456
			c9.303,0,18.332,0,27.787,0c0,9.832,0,19.27-0.016,28.724C410.447,469.252,410.705,468.969,410.705,468.969z"/>
		<path fill-rule="evenodd" clip-rule="evenodd" d="M469.977,409.572c-9.422,0.802-18.844,1.604-29.133,2.478
			c0-10.319,0-19.388,0-29.172c8.959,0,18.035,0,28.865,0c0,9.297,0,18.137,0.023,26.962
			C469.756,409.808,469.977,409.572,469.977,409.572z"/>
		<path fill-rule="evenodd" clip-rule="evenodd" d="M556.178,410.579c0-9.359,0-18.2,0-27.701c9.398,0,18.467,0,28.045,0
			c0,9.431,0,18.231,0,27.701C574.959,410.579,566.143,410.579,556.178,410.579z"/>
	</g>
	<path fill-rule="evenodd" clip-rule="evenodd" d="M394.33,215.409c0,61.331,0,121.467,0,182.704
		c-3.24,0.173-6.322,0.488-9.406,0.488c-54.418,0.031-108.836-0.173-163.246,0.212c-9.484,0.071-12.018-3.106-11.953-12.246
		c0.361-53.12,0.314-106.249,0.039-159.376c-0.049-8.809,2.037-12.6,11.867-12.521c54.418,0.425,108.836,0.189,163.246,0.22
		C387.717,214.89,390.557,215.188,394.33,215.409z M244.904,363.869c39.111,0,77.188,0,115.623,0
		c0.182-3.272,0.439-5.804,0.439-8.337c0.033-32.168-0.234-64.352,0.189-96.519c0.109-8.471-2.658-11.247-11.043-11.153
		c-31.207,0.346-62.416,0.346-93.625,0c-8.949-0.11-12.678,2.643-12.553,12.112c0.418,31.523,0.143,63.062,0.189,94.585
		C244.133,357.396,244.582,360.235,244.904,363.869z"/>
	<path fill-rule="evenodd" clip-rule="evenodd" d="M806.08,215.409c0,61.331,0,121.467,0,182.704
		c-3.24,0.173-6.324,0.488-9.406,0.488c-54.418,0.031-108.836-0.173-163.246,0.212c-9.486,0.071-12.018-3.106-11.955-12.246
		c0.361-53.12,0.314-106.249,0.039-159.376c-0.047-8.809,2.037-12.6,11.867-12.521c54.418,0.425,108.836,0.189,163.246,0.22
		C799.465,214.89,802.305,215.188,806.08,215.409z M656.652,363.869c39.113,0,77.188,0,115.623,0
		c0.182-3.272,0.441-5.804,0.441-8.337c0.031-32.168-0.236-64.352,0.188-96.519c0.111-8.471-2.658-11.247-11.041-11.153
		c-31.209,0.346-62.418,0.346-93.625,0c-8.951-0.11-12.68,2.643-12.553,12.112c0.416,31.523,0.141,63.062,0.188,94.585
		C655.881,357.396,656.33,360.235,656.652,363.869z"/>
	<path fill-rule="evenodd" clip-rule="evenodd" d="M806.299,630.925c0,61.327,0,121.463,0,182.7
		c-3.24,0.173-6.322,0.488-9.406,0.488c-54.41,0.031-108.828-0.173-163.246,0.22c-9.477,0.063-12.018-3.115-11.955-12.254
		c0.363-53.12,0.316-106.24,0.049-159.376c-0.049-8.805,2.037-12.596,11.867-12.517c54.418,0.424,108.828,0.188,163.238,0.22
		C799.693,630.406,802.533,630.705,806.299,630.925z M656.881,779.38c39.111,0,77.188,0,115.615,0
		c0.189-3.272,0.439-5.804,0.439-8.337c0.031-32.168-0.227-64.352,0.189-96.519c0.109-8.463-2.658-11.247-11.043-11.153
		c-31.207,0.346-62.416,0.346-93.625,0c-8.949-0.11-12.678,2.643-12.553,12.112c0.426,31.523,0.143,63.062,0.197,94.584
		C656.109,772.916,656.559,775.747,656.881,779.38z"/>
	<path fill-rule="evenodd" clip-rule="evenodd" d="M394.33,630.925c0,61.327,0,121.463,0,182.7c-3.24,0.173-6.322,0.488-9.406,0.488
		c-54.418,0.031-108.836-0.173-163.246,0.22c-9.484,0.063-12.018-3.115-11.953-12.254c0.361-53.12,0.314-106.24,0.039-159.376
		c-0.049-8.805,2.037-12.596,11.867-12.517c54.418,0.424,108.836,0.188,163.246,0.22
		C387.717,630.406,390.557,630.705,394.33,630.925z M244.904,779.38c39.111,0,77.188,0,115.623,0
		c0.182-3.272,0.439-5.804,0.439-8.337c0.033-32.168-0.234-64.352,0.189-96.519c0.109-8.463-2.658-11.247-11.043-11.153
		c-31.207,0.346-62.416,0.346-93.625,0c-8.949-0.11-12.678,2.643-12.553,12.112c0.418,31.523,0.143,63.062,0.189,94.584
		C244.133,772.916,244.582,775.747,244.904,779.38z"/>
</g>
</svg>
