<?xml version="1.0" encoding="utf-8"?>
<!-- Generator: Adobe Illustrator 16.0.4, SVG Export Plug-In . SVG Version: 6.00 Build 0)  -->
<!DOCTYPE svg PUBLIC "-//W3C//DTD SVG 1.1//EN" "http://www.w3.org/Graphics/SVG/1.1/DTD/svg11.dtd">
<svg version="1.1" id="Layer_1" xmlns="http://www.w3.org/2000/svg" xmlns:xlink="http://www.w3.org/1999/xlink" x="0px" y="0px"
	 width="1024px" height="1024px" viewBox="0 0 1024 1024" enable-background="new 0 0 1024 1024" xml:space="preserve">
<g>
	<path fill-rule="evenodd" clip-rule="evenodd" d="M512.417,541.44c-105.76,0-211.52-0.247-317.279,0.271
		c-15.016,0.072-25.544-14.194-19.144-24.483c2.59-4.176,7.73-7.021,12.193-9.667c1.961-1.164,5.108-0.398,7.715-0.398
		c210.548-0.008,421.096,0,631.635-0.032c8.504-0.008,16.188,0.566,19.885,10.273c3.945,10.369-2.757,22.611-13.812,23.886
		c-3.22,0.375-6.52,0.144-9.778,0.144c-42.05,0.004-84.106,0.004-126.155,0.004C635.918,541.436,574.168,541.436,512.417,541.44z"/>
	<path fill-rule="evenodd" clip-rule="evenodd" d="M232.054,400.071c0-38.184,0.423-76.375-0.111-114.551
		c-0.502-34.988,26.898-70.007,62.021-78.248c9.691-2.279,19.829-3.667,29.783-3.746c46.663-0.375,93.335-0.351,140.007,0.096
		c5.658,0.056,12.942,2.088,16.449,5.961c3.411,3.754,4.87,11.485,3.683,16.673c-1.603,6.998-7.412,11.971-15.845,11.668
		c-3.252-0.127-6.52,0.048-9.787,0.048c-46.018,0.016-92.044,0.574-138.046-0.175c-32.317-0.526-55.063,24.005-54.736,54.689
		c0.805,75.379,0.247,69.163,0.247,144.558c0,8.456-1.235,16.179-10.218,20.18c-12.114,5.379-23.336-1.228-23.384-14.417
		C231.935,401.354,232.046,441.522,232.054,400.071z"/>
	<path fill-rule="evenodd" clip-rule="evenodd" d="M791.251,400.907c0,39.483,0.023-2.662-0.017,36.821
		c-0.008,14.409-5.595,21.893-16.187,21.941c-10.368,0.048-17.637-9.022-17.653-22.706c-0.079-73.411-0.063-65.209-0.023-138.612
		c0.008-16.131-1.228-31.752-13.461-44.169c-10.233-10.393-22.42-16.147-37.092-16.155c-48.616-0.04-97.232-0.023-145.849-0.071
		c-3.57-0.008-7.261,0.127-10.703-0.662c-7.245-1.666-13.19-10.305-12.641-17.582c0.59-7.771,7.667-15.271,15.805-16.107
		c4.846-0.51,9.771-0.239,14.664-0.239c44.695-0.008,89.398-0.215,134.093,0.064c37.586,0.231,66.015,16.37,82.018,50.951
		c4.232,9.125,6.456,19.948,6.647,30.054c0.749,38.813,0.303,77.642,0.303,116.471C791.188,400.907,791.219,400.907,791.251,400.907
		z"/>
	<path fill-rule="evenodd" clip-rule="evenodd" d="M388.071,821.891c-23.152,0.016-46.305-0.087-69.449,0.032
		c-42.304,0.223-73.155-25.336-85.293-64.572c-1.498-4.846-1.18-10.345-1.195-15.542c-0.112-33.585,0.199-91.653-0.255-125.238
		c-0.176-12.353,6.097-17.836,15.357-17.749c11.708,0.104,18.243,5.523,18.354,17.629c0.303,31.298-0.494,87.111,0.526,118.376
		c0.326,9.946,3.482,20.514,8.018,29.425c8.592,16.864,24.866,22.714,42.662,22.874c49.23,0.454,98.476-0.016,147.706,0.478
		c5.499,0.064,12.672,2.582,15.955,6.543c3.284,3.945,4.639,11.676,3.252,16.784c-1.881,6.958-8.241,11.039-16.402,10.991
		C440.896,821.796,414.483,821.875,388.071,821.891z"/>
	<path fill-rule="evenodd" clip-rule="evenodd" d="M635.424,821.923c-25.455,0-50.911,0.048-76.367-0.024
		c-13.389-0.04-21.678-6.83-21.438-17.255c0.239-10.273,8.935-17.294,21.758-17.311c47.979-0.048,95.957,0.048,143.928-0.056
		c33.465-0.08,53.294-19.144,53.884-52.569c0.542-30.341,0.032-85.19,0.231-115.539c0.096-14.704,6.511-20.698,19.868-20.259
		c8.895,0.303,13.597,5.053,13.629,13.182c0.144,38.502,1.084,101.552-0.797,139.967c-1.427,29.201-31.776,60.881-60.204,66.253
		c-11.095,2.096-22.499,3.164-33.792,3.459C675.896,822.313,655.651,821.923,635.424,821.923z"/>
</g>
<g>
	<path d="M341.799,382.227v-36.243h12.082v36.243H341.799z M353.881,345.983v-12.086h24.157v12.086H353.881z M353.881,394.309
		v-12.082h12.082v12.082H353.881z M365.963,382.227v-24.165h12.075v24.165H365.963z"/>
</g>
<g>
	<path d="M341.799,663.57v-24.165h12.082v24.165H341.799z M341.799,699.817v-24.165h12.082v24.165H341.799z M353.881,675.652V663.57
		h12.082v12.082H353.881z M365.963,663.57v-24.165h12.075v24.165H365.963z M365.963,699.817v-24.165h12.075v24.165H365.963z"/>
</g>
<g>
	<path d="M644.605,358.062v-24.165h12.074v24.165H644.605z M644.605,394.309v-24.161h12.074v24.161H644.605z M656.68,370.148
		v-12.086h12.074v12.086H656.68z M668.754,358.062v-24.165h12.091v24.165H668.754z M668.754,394.309v-24.161h12.091v24.161H668.754z
		"/>
</g>
<g>
	<path d="M644.605,699.713v-60.408h24.148v12.079H656.68v36.243h12.074v12.086H644.605z M668.754,687.627v-36.243h12.091v36.243
		H668.754z"/>
</g>
<path fill-rule="evenodd" clip-rule="evenodd" d="M503.913,335.455c6.791,0,13.581,0,21.248,0c0,6.607,0,13.103,0,20.013
	c7.372,0,13.859,0,21.009,0c0-20.861,0-41.372,0-62.437c7.309,0,13.979,0,21.12,0c0,20.865,0,41.551,0,63.034
	c-6.814,0-13.334,0-20.49,0c0,7.304,0,13.835,0,21.319c-7.349,0-14.067,0-21.359,0c0,7.244,0,13.557,0,20.558
	c-21.463,0-42.328,0-63.64,0c0-20.666,0-41.36,0-62.48c7.077,0,14.043,0,21.009,0l-0.199-0.187c0,13.804,0,27.612,0,41.288
	c14.855,0,28.381,0,42.024,0c0-6.961,0-13.226,0-20.498c-7.053,0-13.716,0-20.554,0c0-7.6,0-14.187,0-20.777L503.913,335.455z"/>
<path fill-rule="evenodd" clip-rule="evenodd" d="M482.81,335.463c0-6.822,0-13.64,0-21.447c-7.404,0-14.083,0-21.08,0
	c0-7.52,0-14.027,0-21.044c13.923,0,27.703,0,42.184,0c0,14.258,0,28.365,0,42.483l0.168-0.167
	c-7.157-0.004-14.306-0.012-21.471-0.012L482.81,335.463z"/>
<path fill-rule="evenodd" clip-rule="evenodd" d="M712.923,483.264c0-6.778,0-13.545,0-20.837c6.934,0,13.413,0,20.53,0
	c0,6.448,0,13.086,0,20.666c-6.767,0-13.731,0-20.697,0.008C712.764,483.101,712.923,483.264,712.923,483.264z"/>
<path fill-rule="evenodd" clip-rule="evenodd" d="M439.796,483.34c-6.742,0-13.484,0-20.586,0c0-7.42,0-13.888,0-20.913
	c6.838,0,13.477,0,20.427,0c0,7.225,0,14.163-0.016,21.112C439.612,483.551,439.796,483.34,439.796,483.34z"/>
<path fill-rule="evenodd" clip-rule="evenodd" d="M483.367,439.685c-6.926,0.59-13.852,1.184-21.415,1.825
	c0-7.587,0-14.254,0-21.442c6.583,0,13.254,0,21.216,0c0,6.83,0,13.329,0.016,19.817C483.2,439.86,483.367,439.685,483.367,439.685z
	"/>
<path fill-rule="evenodd" clip-rule="evenodd" d="M546.72,440.426c0-6.878,0-13.374,0-20.359c6.91,0,13.572,0,20.618,0
	c0,6.934,0,13.401,0,20.359C560.523,440.426,554.044,440.426,546.72,440.426z"/>
<path fill-rule="evenodd" clip-rule="evenodd" d="M427.762,296.98c0,45.078,0,89.274,0,134.284c-2.375,0.127-4.646,0.355-6.91,0.355
	c-40.001,0.024-79.993-0.124-119.986,0.159c-6.974,0.052-8.83-2.283-8.782-8.998c0.263-39.048,0.23-78.092,0.031-117.141
	c-0.039-6.476,1.491-9.265,8.72-9.205c39.992,0.311,79.993,0.14,119.978,0.164C422.908,296.598,424.988,296.817,427.762,296.98z
	 M317.937,406.092c28.748,0,56.738,0,84.983,0c0.135-2.398,0.326-4.264,0.326-6.125c0.017-23.643-0.175-47.297,0.136-70.943
	c0.08-6.221-1.953-8.261-8.121-8.193c-22.938,0.255-45.867,0.255-68.804,0c-6.583-0.079-9.325,1.941-9.229,8.902
	c0.303,23.169,0.104,46.349,0.136,69.518C317.363,401.338,317.698,403.422,317.937,406.092z"/>
<path fill-rule="evenodd" clip-rule="evenodd" d="M730.393,296.98c0,45.078,0,89.274,0,134.284
	c-2.375,0.127-4.646,0.355-6.909,0.355c-40.001,0.024-79.994-0.124-119.986,0.159c-6.974,0.052-8.831-2.283-8.783-8.998
	c0.264-39.048,0.231-78.092,0.032-117.141c-0.04-6.476,1.49-9.265,8.719-9.205c39.993,0.311,79.993,0.14,119.979,0.164
	C725.539,296.598,727.619,296.817,730.393,296.98z M620.568,406.092c28.755,0,56.737,0,84.982,0
	c0.136-2.398,0.327-4.264,0.327-6.125c0.016-23.643-0.176-47.297,0.135-70.943c0.08-6.221-1.952-8.261-8.121-8.193
	c-22.937,0.255-45.866,0.255-68.804,0c-6.583-0.079-9.324,1.941-9.229,8.902c0.303,23.169,0.104,46.349,0.144,69.518
	C620.003,401.338,620.329,403.422,620.568,406.092z"/>
<path fill-rule="evenodd" clip-rule="evenodd" d="M730.561,602.377c0,45.074,0,89.274,0,134.284
	c-2.392,0.131-4.646,0.359-6.91,0.359c-39.992,0.024-79.985-0.128-119.994,0.163c-6.966,0.044-8.83-2.287-8.783-9.006
	c0.264-39.044,0.239-78.089,0.032-117.145c-0.032-6.467,1.498-9.257,8.719-9.197c40.009,0.315,79.994,0.14,119.986,0.164
	C725.698,601.999,727.795,602.218,730.561,602.377z M620.735,711.493c28.748,0,56.729,0,84.983,0
	c0.127-2.407,0.318-4.268,0.318-6.128c0.023-23.643-0.167-47.297,0.136-70.94c0.087-6.22-1.953-8.269-8.113-8.197
	c-22.938,0.251-45.883,0.251-68.812,0c-6.583-0.084-9.316,1.944-9.221,8.902c0.303,23.168,0.096,46.349,0.136,69.521
	C620.17,706.739,620.497,708.823,620.735,711.493z"/>
<path fill-rule="evenodd" clip-rule="evenodd" d="M427.762,602.377c0,45.074,0,89.274,0,134.284
	c-2.375,0.131-4.646,0.359-6.91,0.359c-40.001,0.024-79.993-0.128-119.986,0.163c-6.974,0.044-8.83-2.287-8.782-9.006
	c0.263-39.044,0.23-78.089,0.031-117.145c-0.039-6.467,1.491-9.257,8.72-9.197c39.992,0.315,79.993,0.14,119.978,0.164
	C422.908,601.999,424.988,602.218,427.762,602.377z M317.937,711.493c28.748,0,56.738,0,84.983,0
	c0.135-2.407,0.326-4.268,0.326-6.128c0.017-23.643-0.175-47.297,0.136-70.94c0.08-6.22-1.953-8.269-8.121-8.197
	c-22.938,0.251-45.867,0.251-68.804,0c-6.583-0.084-9.325,1.944-9.229,8.902c0.303,23.168,0.104,46.349,0.136,69.521
	C317.363,706.739,317.698,708.823,317.937,711.493z"/>
<g>
	<path d="M672.221,519.91c0,0.06,0,0.115,0,0.175c0.048,0,0.096,0,0.144,0C672.364,520.073,672.221,519.91,672.221,519.91z"/>
	<path d="M672.221,551.984h-18.697c0,7.559,0,15.119,0,22.754c-30.787,0-60.985,0-91.876,0c0-6.037,0-11.712,0-17.761
		c-6.527,0-12.338,0-18.737,0c0,10.712,0.159,20.985-0.151,31.246c-0.056,1.753-2.097,4.894-3.3,4.938
		c-10.847,0.382-21.718,0.227-33.33,0.227c0-6.372,0-12.031,0-18.327c-6.439,0-12.122,0-18.546,0c0-6.5,0-12.35,0-18.167
		c-12.656,0-24.539,0-36.621,0c0,6.197,0,12.039,0,18.522c6.065,0,11.724,0,18.084,0c0,12.477,0,24.316,0,37.04
		c6.511,0,12.337,0,18.155,0c0,12.548,0,24.188,0,36.04c-6.05,0-11.708,0-18.036,0c0-6.049,0-11.724,0-17.737
		c-6.504,0-12.346,0-18.251,0c0,24.675,0,48.907,0,73.207c6.177,0,12.011,0,18.538,0c0-6.125,0-11.779,0-18.024
		c6.376,0,12.05,0,18.259,0c0-6.312,0-11.999,0-17.896c6.368,0,12.178,0,18.649,0c0,12.393,0,24.244,0,36c12.545,0,24.411,0,37.53,0
		c0-12.648,0-24.898,0-37.144c-0.064-0.004-0.12-0.008-0.184-0.012c0-0.052,0-0.1,0-0.151c-6.073,0-12.13,0-18.793,0
		c0-5.627,0-11.305,0-17.805c-6.424,0-12.266,0-18.395,0c0-6.3,0-11.771,0-18.127c5.945,0,11.771,0,18.251,0
		c0-6.523,0-12.186,0-18.151c12.29,0,23.918,0,35.96,0c0,5.722,0,11.178,0,17.665c-4.407,0-8.862-0.243-13.27,0.127
		c-1.555,0.127-4.296,1.722-4.296,2.67c-0.063,11.209,0.287,22.423,0.542,33.621c0.056,0,0.119,0,0.184,0c0,0.056,0,0.107,0,0.163
		c5.57,0.355,11.142,0.729,17.318,1.144c0,5.929,0,11.584,0,17.562c6.424,0,12.218,0,18.02,0c0-5.866,0-11.744,0-18.418
		c-5.882,0-11.524,0-17.223,0c0-12.485,0-24.153,0-36.012c5.953,0,11.54,0,17.78,0l0.463-1.144c0-11.923,0-23.687,0-35.889
		c5.778,0,11.404,0,17.422,0h19.311c5.954,0,11.597,0,17.869,0l37.506-0.418c6.344,0,12.034,0,17.94,0c0-6.519,0-12.369,0-18.853
		c-6.113,0-11.796,0-18.076,0C672.221,567.135,672.221,559.552,672.221,551.984z"/>
	<path d="M579.349,685.607c-0.04,0-0.08,0-0.12,0c0,0.036,0,0.072,0,0.107L579.349,685.607z"/>
</g>
<path fill-rule="evenodd" clip-rule="evenodd" d="M609.825,551.984c0,5.348,0,10.464,0,15.573c7.173,0,13.867,0,20.609,0
	c0-5.392,0-10.46,0-15.573H609.825z"/>
<g>
	<path d="M715.688,483.101c0,0.056,0,0.108,0,0.164c0.048,0,0.104,0,0.159,0L715.688,483.101z"/>
	<path d="M652.073,493.76h63.479c0.04-3.499,0.088-6.998,0.136-10.496c-6.926,0-13.844,0-21.519,0c0-7.862,0-14.342,0-20.849
		c-21.455,0-42.121,0-63.129,0c0,6.985,0,13.473,0,20.849c7.069,0,13.756,0,21.032,0C652.073,486.91,652.073,490.341,652.073,493.76
		z"/>
</g>
<g>
	<path d="M609.419,493.76c0-3.626,0-7.236,0-10.994c-7.277,0-13.565,0-20.698,0c0-7.101,0-13.597,0-20.451
		c-7.364,0-13.844,0-21.486,0c0,6.989,0,13.648,0,21.06c-7.628,0-14.115,0-20.865,0c0,3.535-0.008,6.918-0.016,10.385H609.419z"/>
	<path d="M547.31,547.78c0-0.052-0.008-0.104-0.008-0.156c-0.04,0-0.088,0-0.128,0L547.31,547.78z"/>
</g>
<g>
	<path d="M503.419,493.76h21.367c0-24.698,0-49.162,0-73.602c-7.133,0-13.804,0-21.207,0c0,7.089,0,13.597,0,20.881
		c-7.245-0.418-13.725-0.789-20.22-1.171c-0.191,7.289-0.398,14.565-0.598,21.841c6.742,0.307,13.493,0.618,20.657,0.953
		C503.419,472.951,503.419,483.073,503.419,493.76z"/>
	<path d="M483.2,439.86c0.056,0.004,0.111,0.008,0.159,0.008c0.008-0.06,0.008-0.12,0.008-0.183L483.2,439.86z"/>
	<path d="M482.762,461.709c-0.048-0.004-0.096-0.004-0.144-0.008l0.144,0.127C482.762,461.789,482.762,461.75,482.762,461.709z"/>
	<path d="M482.785,525.819c0-0.06,0-0.116,0-0.176c-0.056,0-0.111,0-0.167,0L482.785,525.819z"/>
</g>
<g>
	<path d="M482.618,461.702c0,0.044,0,0.083,0,0.127c0.048,0,0.096,0,0.144,0L482.618,461.702z"/>
	<path d="M482.61,493.76c0.008-10.644,0.008-21.288,0.008-31.931c-6.926,0-13.844,0-21.407,0c0,7.571,0,14.059,0,20.762
		c-7.579,0.331-14.505,0.642-21.415,0.952c0,3.363,0,6.73,0,10.217H482.61z"/>
	<path d="M439.796,483.34l-0.184,0.211c0.064-0.004,0.12-0.004,0.184-0.008C439.796,483.475,439.796,483.408,439.796,483.34z"/>
	<path d="M418.779,525.748c0-0.044,0-0.092,0-0.136c-0.048,0-0.104,0-0.151,0L418.779,525.748z"/>
	<path d="M461.291,525.819l0.151-0.16c-0.048,0-0.104,0-0.151,0C461.291,525.711,461.291,525.767,461.291,525.819z"/>
</g>
<path d="M312.111,493.76h64.197c0-10.576,0-21.008,0-31.493c-28.564,0-56.14,0-84.226,0c0,7.037,0,13.728,0,21.108
	c7.021,0,13.557,0,20.028,0C312.111,486.946,312.111,490.345,312.111,493.76z"/>
<path d="M418.628,525.612c0,0.044,0,0.092,0,0.136c0.048,0,0.104,0,0.151,0L418.628,525.612z"/>
<g>
	<path d="M334.22,552.331c0,5.28,0,10.369,0,15.226c14.672,0,28.269,0,42.631,0c-0.256-5.332-0.486-10.305-0.726-15.226H334.22z"/>
</g>
<g>
	<path d="M397.954,551.984c0,5.416,0,10.6,0,15.744c14.338,0,27.902,0,41.771,0c0-5.3,0-10.44,0-15.744H397.954z"/>
</g>
</svg>
